<mxfile host="app.diagrams.net" modified="2020-12-31T07:34:30.003Z" agent="5.0 (Windows NT 10.0; Win64; x64) AppleWebKit/537.36 (KHTML, like Gecko) Chrome/87.0.4280.88 Safari/537.36" etag="wYqmAP4QZUn1-3DE40vd" version="14.1.3" type="github">
  <diagram id="prtHgNgQTEPvFCAcTncT" name="Page-1">
    <mxGraphModel dx="1422" dy="762" grid="1" gridSize="10" guides="1" tooltips="1" connect="1" arrows="1" fold="1" page="1" pageScale="1" pageWidth="827" pageHeight="1169" math="0" shadow="0">
      <root>
        <mxCell id="0" />
        <mxCell id="1" parent="0" />
        <mxCell id="9OHpl1yXLWdHkKXlVvdB-2" value="开发" style="swimlane;html=1;childLayout=stackLayout;resizeParent=1;resizeParentMax=0;startSize=20;" vertex="1" parent="1">
          <mxGeometry y="110" width="400" height="480" as="geometry" />
        </mxCell>
        <mxCell id="9OHpl1yXLWdHkKXlVvdB-3" value="Maven中央仓库" style="swimlane;html=1;startSize=20;" vertex="1" parent="9OHpl1yXLWdHkKXlVvdB-2">
          <mxGeometry y="20" width="100" height="460" as="geometry" />
        </mxCell>
        <mxCell id="9OHpl1yXLWdHkKXlVvdB-16" value="标准jar包库" style="rounded=0;whiteSpace=wrap;html=1;" vertex="1" parent="9OHpl1yXLWdHkKXlVvdB-3">
          <mxGeometry x="15" y="50" width="70" height="40" as="geometry" />
        </mxCell>
        <mxCell id="9OHpl1yXLWdHkKXlVvdB-4" value="中证Nexus" style="swimlane;html=1;startSize=20;" vertex="1" parent="9OHpl1yXLWdHkKXlVvdB-2">
          <mxGeometry x="100" y="20" width="100" height="460" as="geometry" />
        </mxCell>
        <mxCell id="9OHpl1yXLWdHkKXlVvdB-20" value="标准jar包库" style="rounded=0;whiteSpace=wrap;html=1;" vertex="1" parent="9OHpl1yXLWdHkKXlVvdB-4">
          <mxGeometry x="20" y="50" width="70" height="40" as="geometry" />
        </mxCell>
        <mxCell id="9OHpl1yXLWdHkKXlVvdB-22" value="二方库" style="rounded=0;whiteSpace=wrap;html=1;" vertex="1" parent="9OHpl1yXLWdHkKXlVvdB-4">
          <mxGeometry x="20" y="120" width="70" height="40" as="geometry" />
        </mxCell>
        <mxCell id="9OHpl1yXLWdHkKXlVvdB-23" value="三方库" style="rounded=0;whiteSpace=wrap;html=1;" vertex="1" parent="9OHpl1yXLWdHkKXlVvdB-4">
          <mxGeometry x="20" y="190" width="70" height="40" as="geometry" />
        </mxCell>
        <mxCell id="9OHpl1yXLWdHkKXlVvdB-5" value="基于SpringBoot的开发架构" style="swimlane;html=1;startSize=20;fillColor=#f8cecc;strokeColor=#b85450;" vertex="1" parent="9OHpl1yXLWdHkKXlVvdB-2">
          <mxGeometry x="200" y="20" width="200" height="460" as="geometry" />
        </mxCell>
        <mxCell id="9OHpl1yXLWdHkKXlVvdB-28" value="SpringBoot微服务" style="shape=cube;whiteSpace=wrap;html=1;boundedLbl=1;backgroundOutline=1;darkOpacity=0.05;darkOpacity2=0.1;rounded=0;" vertex="1" parent="9OHpl1yXLWdHkKXlVvdB-5">
          <mxGeometry x="45" y="50" width="120" height="180" as="geometry" />
        </mxCell>
        <mxCell id="9OHpl1yXLWdHkKXlVvdB-32" value="SpringBoot微服务" style="shape=cube;whiteSpace=wrap;html=1;boundedLbl=1;backgroundOutline=1;darkOpacity=0.05;darkOpacity2=0.1;rounded=0;" vertex="1" parent="9OHpl1yXLWdHkKXlVvdB-5">
          <mxGeometry x="55" y="270" width="120" height="180" as="geometry" />
        </mxCell>
        <mxCell id="9OHpl1yXLWdHkKXlVvdB-21" style="edgeStyle=orthogonalEdgeStyle;rounded=0;orthogonalLoop=1;jettySize=auto;html=1;exitX=1;exitY=0.5;exitDx=0;exitDy=0;entryX=0;entryY=0.5;entryDx=0;entryDy=0;" edge="1" parent="9OHpl1yXLWdHkKXlVvdB-2" source="9OHpl1yXLWdHkKXlVvdB-16" target="9OHpl1yXLWdHkKXlVvdB-20">
          <mxGeometry relative="1" as="geometry" />
        </mxCell>
        <mxCell id="9OHpl1yXLWdHkKXlVvdB-25" style="edgeStyle=orthogonalEdgeStyle;rounded=0;orthogonalLoop=1;jettySize=auto;html=1;exitX=1;exitY=0.5;exitDx=0;exitDy=0;entryX=0.017;entryY=0.111;entryDx=0;entryDy=0;entryPerimeter=0;" edge="1" parent="9OHpl1yXLWdHkKXlVvdB-2" source="9OHpl1yXLWdHkKXlVvdB-20">
          <mxGeometry relative="1" as="geometry">
            <mxPoint x="242.03999999999996" y="89.98000000000002" as="targetPoint" />
          </mxGeometry>
        </mxCell>
        <mxCell id="9OHpl1yXLWdHkKXlVvdB-29" value="" style="edgeStyle=orthogonalEdgeStyle;rounded=0;orthogonalLoop=1;jettySize=auto;html=1;" edge="1" parent="9OHpl1yXLWdHkKXlVvdB-2" source="9OHpl1yXLWdHkKXlVvdB-22" target="9OHpl1yXLWdHkKXlVvdB-28">
          <mxGeometry relative="1" as="geometry" />
        </mxCell>
        <mxCell id="9OHpl1yXLWdHkKXlVvdB-30" style="edgeStyle=orthogonalEdgeStyle;rounded=0;orthogonalLoop=1;jettySize=auto;html=1;exitX=1;exitY=0.5;exitDx=0;exitDy=0;entryX=0;entryY=0;entryDx=0;entryDy=160;entryPerimeter=0;" edge="1" parent="9OHpl1yXLWdHkKXlVvdB-2" source="9OHpl1yXLWdHkKXlVvdB-23" target="9OHpl1yXLWdHkKXlVvdB-28">
          <mxGeometry relative="1" as="geometry" />
        </mxCell>
        <mxCell id="9OHpl1yXLWdHkKXlVvdB-31" style="edgeStyle=orthogonalEdgeStyle;rounded=0;orthogonalLoop=1;jettySize=auto;html=1;exitX=0;exitY=0;exitDx=70;exitDy=180;exitPerimeter=0;entryX=0;entryY=0.5;entryDx=0;entryDy=0;" edge="1" parent="9OHpl1yXLWdHkKXlVvdB-2" source="9OHpl1yXLWdHkKXlVvdB-28" target="9OHpl1yXLWdHkKXlVvdB-22">
          <mxGeometry relative="1" as="geometry" />
        </mxCell>
        <mxCell id="9OHpl1yXLWdHkKXlVvdB-6" value="BitBucket" style="swimlane;html=1;startSize=20;fillColor=#e1d5e7;strokeColor=#9673a6;" vertex="1" parent="1">
          <mxGeometry x="400" y="130" width="160" height="460" as="geometry" />
        </mxCell>
        <mxCell id="9OHpl1yXLWdHkKXlVvdB-33" value="代码库" style="ellipse;whiteSpace=wrap;html=1;rounded=0;" vertex="1" parent="9OHpl1yXLWdHkKXlVvdB-6">
          <mxGeometry x="22.5" y="100" width="120" height="80" as="geometry" />
        </mxCell>
        <mxCell id="9OHpl1yXLWdHkKXlVvdB-35" value="代码库" style="ellipse;whiteSpace=wrap;html=1;rounded=0;" vertex="1" parent="9OHpl1yXLWdHkKXlVvdB-6">
          <mxGeometry x="27.5" y="320" width="120" height="80" as="geometry" />
        </mxCell>
        <mxCell id="9OHpl1yXLWdHkKXlVvdB-34" value="" style="edgeStyle=orthogonalEdgeStyle;rounded=0;orthogonalLoop=1;jettySize=auto;html=1;" edge="1" parent="1" source="9OHpl1yXLWdHkKXlVvdB-28" target="9OHpl1yXLWdHkKXlVvdB-33">
          <mxGeometry relative="1" as="geometry" />
        </mxCell>
        <mxCell id="9OHpl1yXLWdHkKXlVvdB-36" value="" style="edgeStyle=orthogonalEdgeStyle;rounded=0;orthogonalLoop=1;jettySize=auto;html=1;" edge="1" parent="1" source="9OHpl1yXLWdHkKXlVvdB-32" target="9OHpl1yXLWdHkKXlVvdB-35">
          <mxGeometry relative="1" as="geometry" />
        </mxCell>
        <mxCell id="9OHpl1yXLWdHkKXlVvdB-37" value="Jenkins" style="swimlane;html=1;startSize=20;fillColor=#f8cecc;strokeColor=#b85450;" vertex="1" parent="1">
          <mxGeometry x="560" y="130" width="182.5" height="460" as="geometry" />
        </mxCell>
        <mxCell id="9OHpl1yXLWdHkKXlVvdB-41" value="持续集成&lt;br&gt;持续发布" style="whiteSpace=wrap;html=1;rounded=0;" vertex="1" parent="9OHpl1yXLWdHkKXlVvdB-37">
          <mxGeometry x="10" y="40" width="70" height="200" as="geometry" />
        </mxCell>
        <mxCell id="9OHpl1yXLWdHkKXlVvdB-43" value="持续集成&lt;br&gt;持续发布" style="whiteSpace=wrap;html=1;rounded=0;" vertex="1" parent="9OHpl1yXLWdHkKXlVvdB-37">
          <mxGeometry x="100" y="250" width="70" height="200" as="geometry" />
        </mxCell>
        <mxCell id="9OHpl1yXLWdHkKXlVvdB-42" value="" style="edgeStyle=orthogonalEdgeStyle;rounded=0;orthogonalLoop=1;jettySize=auto;html=1;" edge="1" parent="1" source="9OHpl1yXLWdHkKXlVvdB-33" target="9OHpl1yXLWdHkKXlVvdB-41">
          <mxGeometry relative="1" as="geometry" />
        </mxCell>
        <mxCell id="9OHpl1yXLWdHkKXlVvdB-44" style="edgeStyle=orthogonalEdgeStyle;rounded=0;orthogonalLoop=1;jettySize=auto;html=1;exitX=1;exitY=0.5;exitDx=0;exitDy=0;entryX=0.029;entryY=0.55;entryDx=0;entryDy=0;entryPerimeter=0;" edge="1" parent="1" source="9OHpl1yXLWdHkKXlVvdB-35" target="9OHpl1yXLWdHkKXlVvdB-43">
          <mxGeometry relative="1" as="geometry" />
        </mxCell>
        <mxCell id="9OHpl1yXLWdHkKXlVvdB-45" value="运行环境" style="swimlane;html=1;startSize=20;" vertex="1" parent="1">
          <mxGeometry x="742.5" y="130" width="157.5" height="460" as="geometry" />
        </mxCell>
        <mxCell id="9OHpl1yXLWdHkKXlVvdB-46" value="测试环境" style="ellipse;whiteSpace=wrap;html=1;rounded=0;" vertex="1" parent="9OHpl1yXLWdHkKXlVvdB-45">
          <mxGeometry x="22.5" y="100" width="120" height="80" as="geometry" />
        </mxCell>
        <mxCell id="9OHpl1yXLWdHkKXlVvdB-47" value="生产环境" style="ellipse;whiteSpace=wrap;html=1;rounded=0;" vertex="1" parent="9OHpl1yXLWdHkKXlVvdB-45">
          <mxGeometry x="27.5" y="320" width="120" height="80" as="geometry" />
        </mxCell>
        <mxCell id="9OHpl1yXLWdHkKXlVvdB-48" style="edgeStyle=orthogonalEdgeStyle;rounded=0;orthogonalLoop=1;jettySize=auto;html=1;exitX=1;exitY=0.5;exitDx=0;exitDy=0;entryX=0.025;entryY=0.375;entryDx=0;entryDy=0;entryPerimeter=0;" edge="1" parent="1" source="9OHpl1yXLWdHkKXlVvdB-43" target="9OHpl1yXLWdHkKXlVvdB-47">
          <mxGeometry relative="1" as="geometry" />
        </mxCell>
        <mxCell id="9OHpl1yXLWdHkKXlVvdB-49" style="edgeStyle=orthogonalEdgeStyle;rounded=0;orthogonalLoop=1;jettySize=auto;html=1;exitX=1;exitY=0.5;exitDx=0;exitDy=0;entryX=0;entryY=0.5;entryDx=0;entryDy=0;" edge="1" parent="1" source="9OHpl1yXLWdHkKXlVvdB-41" target="9OHpl1yXLWdHkKXlVvdB-46">
          <mxGeometry relative="1" as="geometry" />
        </mxCell>
        <mxCell id="9OHpl1yXLWdHkKXlVvdB-50" style="edgeStyle=orthogonalEdgeStyle;rounded=0;orthogonalLoop=1;jettySize=auto;html=1;exitX=1;exitY=0.75;exitDx=0;exitDy=0;entryX=0.5;entryY=0;entryDx=0;entryDy=0;" edge="1" parent="1" source="9OHpl1yXLWdHkKXlVvdB-41" target="9OHpl1yXLWdHkKXlVvdB-47">
          <mxGeometry relative="1" as="geometry" />
        </mxCell>
        <mxCell id="9OHpl1yXLWdHkKXlVvdB-51" style="edgeStyle=orthogonalEdgeStyle;rounded=0;orthogonalLoop=1;jettySize=auto;html=1;exitX=1;exitY=0.25;exitDx=0;exitDy=0;entryX=0;entryY=1;entryDx=0;entryDy=0;" edge="1" parent="1" source="9OHpl1yXLWdHkKXlVvdB-43" target="9OHpl1yXLWdHkKXlVvdB-46">
          <mxGeometry relative="1" as="geometry" />
        </mxCell>
        <mxCell id="9OHpl1yXLWdHkKXlVvdB-68" value="&lt;b&gt;测试/发布&lt;/b&gt;" style="rounded=0;whiteSpace=wrap;html=1;" vertex="1" parent="1">
          <mxGeometry x="400" y="110" width="660" height="20" as="geometry" />
        </mxCell>
        <mxCell id="9OHpl1yXLWdHkKXlVvdB-69" value="监控平台" style="swimlane;html=1;startSize=20;" vertex="1" parent="1">
          <mxGeometry x="900" y="130" width="160" height="460" as="geometry" />
        </mxCell>
        <mxCell id="9OHpl1yXLWdHkKXlVvdB-73" value="应用监控" style="rounded=0;whiteSpace=wrap;html=1;" vertex="1" parent="9OHpl1yXLWdHkKXlVvdB-69">
          <mxGeometry x="20" y="69" width="120" height="60" as="geometry" />
        </mxCell>
        <mxCell id="9OHpl1yXLWdHkKXlVvdB-74" value="数据库监控" style="rounded=0;whiteSpace=wrap;html=1;" vertex="1" parent="9OHpl1yXLWdHkKXlVvdB-69">
          <mxGeometry x="20" y="156" width="120" height="60" as="geometry" />
        </mxCell>
        <mxCell id="9OHpl1yXLWdHkKXlVvdB-75" value="中间件监控" style="rounded=0;whiteSpace=wrap;html=1;" vertex="1" parent="9OHpl1yXLWdHkKXlVvdB-69">
          <mxGeometry x="20" y="241" width="120" height="60" as="geometry" />
        </mxCell>
        <mxCell id="9OHpl1yXLWdHkKXlVvdB-76" value="系统监控" style="rounded=0;whiteSpace=wrap;html=1;" vertex="1" parent="9OHpl1yXLWdHkKXlVvdB-69">
          <mxGeometry x="20" y="329" width="120" height="60" as="geometry" />
        </mxCell>
        <mxCell id="9OHpl1yXLWdHkKXlVvdB-77" value="系统监控" style="rounded=0;whiteSpace=wrap;html=1;" vertex="1" parent="9OHpl1yXLWdHkKXlVvdB-69">
          <mxGeometry x="20" y="329" width="120" height="60" as="geometry" />
        </mxCell>
        <mxCell id="9OHpl1yXLWdHkKXlVvdB-79" value="" style="shape=flexArrow;endArrow=classic;html=1;" edge="1" parent="9OHpl1yXLWdHkKXlVvdB-69">
          <mxGeometry width="50" height="50" relative="1" as="geometry">
            <mxPoint x="-15" y="140" as="sourcePoint" />
            <mxPoint x="35" y="140" as="targetPoint" />
          </mxGeometry>
        </mxCell>
        <mxCell id="9OHpl1yXLWdHkKXlVvdB-72" value="" style="endArrow=none;dashed=1;html=1;entryX=0.51;entryY=0.048;entryDx=0;entryDy=0;entryPerimeter=0;exitX=0.5;exitY=1;exitDx=0;exitDy=0;" edge="1" parent="1" source="9OHpl1yXLWdHkKXlVvdB-37" target="9OHpl1yXLWdHkKXlVvdB-37">
          <mxGeometry width="50" height="50" relative="1" as="geometry">
            <mxPoint x="390" y="410" as="sourcePoint" />
            <mxPoint x="440" y="360" as="targetPoint" />
          </mxGeometry>
        </mxCell>
        <mxCell id="9OHpl1yXLWdHkKXlVvdB-83" value="" style="shape=flexArrow;endArrow=classic;html=1;" edge="1" parent="1">
          <mxGeometry width="50" height="50" relative="1" as="geometry">
            <mxPoint x="886" y="361" as="sourcePoint" />
            <mxPoint x="936" y="361" as="targetPoint" />
          </mxGeometry>
        </mxCell>
        <mxCell id="9OHpl1yXLWdHkKXlVvdB-84" value="" style="shape=flexArrow;endArrow=classic;html=1;" edge="1" parent="1">
          <mxGeometry width="50" height="50" relative="1" as="geometry">
            <mxPoint x="886" y="447" as="sourcePoint" />
            <mxPoint x="936" y="447" as="targetPoint" />
          </mxGeometry>
        </mxCell>
      </root>
    </mxGraphModel>
  </diagram>
</mxfile>
